<svg width="65" height="280" fill="none" xmlns="http://www.w3.org/2000/svg" xmlns:xlink="http://www.w3.org/1999/xlink">
<symbol id="settings">
  <path d="M15 7.455a4.647 4.647 0 00-4.641 4.642A4.647 4.647 0 0015 16.739a4.647 4.647 0 004.642-4.642A4.647 4.647 0 0015 7.455zm0 7.832a3.193 3.193 0 01-3.19-3.19A3.194 3.194 0 0115 8.907c1.76 0 3.19 1.431 3.19 3.19 0 1.76-1.43 3.19-3.19 3.19zm11.123-5.904H24.46a9.755 9.755 0 00-.853-2.054l1.176-1.177a.726.726 0 000-1.026l-2.812-2.813a.726.726 0 00-1.027 0L19.768 3.49a9.755 9.755 0 00-2.055-.854V.975a.726.726 0 00-.725-.726H13.01a.725.725 0 00-.726.726v1.661a9.75 9.75 0 00-2.054.854L9.053 2.313a.747.747 0 00-1.026 0L5.215 5.125a.725.725 0 000 1.026L6.39 7.328a9.776 9.776 0 00-.853 2.055H3.876a.725.725 0 00-.726.726v3.977c0 .401.325.726.726.726h1.662c.205.714.49 1.401.854 2.054l-1.177 1.177a.725.725 0 000 1.026l2.812 2.813a.725.725 0 001.027 0l1.178-1.178c.653.363 1.34.65 2.053.853v1.664c0 .4.325.725.726.725h3.977c.4 0 .726-.325.726-.726v-1.663a9.742 9.742 0 002.054-.853l1.177 1.178a.747.747 0 001.027 0l2.812-2.813a.726.726 0 000-1.026l-1.177-1.178a9.79 9.79 0 00.854-2.053h1.662c.4 0 .726-.325.726-.726v-3.978c0-.4-.326-.725-.726-.725zm-.726 3.977h-1.5a.725.725 0 00-.708.568 8.328 8.328 0 01-1.107 2.662.726.726 0 00.1.902l1.063 1.063-1.786 1.787-1.063-1.064a.725.725 0 00-.903-.099 8.318 8.318 0 01-2.662 1.106.725.725 0 00-.568.708v1.501h-2.526v-1.5a.725.725 0 00-.568-.71 8.332 8.332 0 01-2.662-1.104.726.726 0 00-.902.099L8.54 20.342l-1.786-1.787 1.063-1.063a.725.725 0 00.1-.902 8.31 8.31 0 01-1.107-2.662.726.726 0 00-.708-.568h-1.5v-2.526h1.5c.34 0 .635-.236.708-.568a8.32 8.32 0 011.107-2.662.726.726 0 00-.1-.903L6.756 5.638 8.54 3.853l1.063 1.062a.724.724 0 00.902.1 8.315 8.315 0 012.663-1.106.726.726 0 00.568-.709V1.7h2.526v1.5c0 .34.236.635.568.709.942.21 1.839.582 2.663 1.105a.725.725 0 00.902-.099l1.063-1.062 1.786 1.786L22.182 6.7a.726.726 0 00-.1.903 8.32 8.32 0 011.107 2.662.725.725 0 00.708.568h1.5v2.526z"/>
</symbol>
<symbol id="search">
  <g>
    <path d="M11.805 44.168c-2.312 0-4.485-.9-6.12-2.534a8.597 8.597 0 01-2.534-6.12c0-2.31.9-4.484 2.534-6.118a8.596 8.596 0 016.12-2.535c2.311 0 4.485.9 6.119 2.535 3.374 3.374 3.374 8.864 0 12.238a8.595 8.595 0 01-6.12 2.534zm0-15.855a7.154 7.154 0 00-5.093 2.11 7.154 7.154 0 00-2.11 5.092c0 1.923.75 3.732 2.11 5.092a7.154 7.154 0 005.093 2.11 7.155 7.155 0 005.092-2.11c2.808-2.807 2.808-7.377 0-10.185a7.153 7.153 0 00-5.092-2.11z"/>
    <path d="M26.123 50.559a.723.723 0 01-.514-.213l-8.711-8.712a.725.725 0 111.026-1.027l8.712 8.713a.725.725 0 01-.513 1.239z"/>
  </g>
</symbol>
<symbol id="message">
  <path d="M25.083 71.544a11.792 11.792 0 001.765-6.222c0-6.533-5.315-11.848-11.848-11.848S3.152 58.789 3.152 65.322 8.467 77.171 15 77.171c2.21 0 4.352-.61 6.222-1.766l4.648 1.721a.727.727 0 00.933-.932l-1.72-4.65zm-3.696 2.374a.727.727 0 00-.653.076A10.351 10.351 0 0115 75.72c-5.733 0-10.396-4.664-10.396-10.397 0-5.733 4.664-10.396 10.396-10.396 5.732 0 10.396 4.664 10.396 10.396 0 2.048-.596 4.03-1.724 5.734a.725.725 0 00-.076.653l1.298 3.507-3.507-1.297zM10.109 64.1a1.223 1.223 0 100 2.445 1.223 1.223 0 000-2.445zm4.89 0a1.222 1.222 0 100 2.444 1.222 1.222 0 000-2.444zm4.892 0a1.222 1.222 0 100 2.445 1.222 1.222 0 000-2.445z" />
</symbol>
<symbol id="thread">
  <path d="M26.122 103.784a.714.714 0 01-.252-.046l-2.664-.986a7.374 7.374 0 01-3.77 1.032c-4.088 0-7.414-3.326-7.414-7.413s3.326-7.413 7.413-7.413 7.413 3.326 7.413 7.413a7.37 7.37 0 01-1.032 3.77l.987 2.665a.726.726 0 01-.68.978zM19.436 90.41a5.968 5.968 0 00-5.962 5.961 5.968 5.968 0 005.962 5.961 5.93 5.93 0 003.287-.989.728.728 0 01.653-.076l1.518.562-.562-1.519a.727.727 0 01.076-.653 5.93 5.93 0 00.989-3.286 5.968 5.968 0 00-5.961-5.961z" />
</symbol>
<symbol id="home">
  <path d="M3.878 100.141a.726.726 0 01-.681-.977l1.418-3.834a9.986 9.986 0 01-1.463-5.216c0-5.529 4.498-10.027 10.027-10.027 5.529 0 10.027 4.498 10.027 10.027 0 .076-.005.15-.01.225l-.006.1a.726.726 0 01-1.054.623 5.892 5.892 0 00-2.7-.652 5.968 5.968 0 00-5.961 5.962c0 .942.219 1.85.652 2.7a.725.725 0 01-.623 1.053l-.1.006a2.79 2.79 0 01-.226.01 9.983 9.983 0 01-5.215-1.463l-3.834 1.418a.733.733 0 01-.251.045zm4.17-2.995c.141 0 .28.041.401.12a8.524 8.524 0 003.936 1.387 7.306 7.306 0 01-.362-2.282c0-4.087 3.325-7.413 7.413-7.413.783 0 1.547.121 2.282.362-.402-4.358-4.078-7.781-8.54-7.781-4.728 0-8.574 3.846-8.574 8.575a8.54 8.54 0 001.422 4.73.726.726 0 01.076.652l-.996 2.69 2.69-.995a.728.728 0 01.252-.045z" />
</symbol>
<symbol id="error">
  <path d="M26.625 117.54l-2.494-2.385v-.001l-8.63-8.253a.726.726 0 00-1.003 0l-5.848 5.594-5.275 5.045a.725.725 0 101.004 1.049l1.266-1.212v10.843c0 .401.325.726.726.726h5.445a.726.726 0 00.725-.726v-5.71A2.461 2.461 0 0115 120.052a2.461 2.461 0 012.459 2.458v5.71c0 .401.325.726.725.726h5.445c.4 0 .726-.325.726-.726v-10.843l1.266 1.212a.726.726 0 101.004-1.049zm-3.722 9.954H18.91v-4.984A3.915 3.915 0 0015 118.6a3.914 3.914 0 00-3.91 3.91v4.985H7.095v-11.506L15 108.43l5.69 5.442 2.213 2.117v11.505z"/>
</symbol>
<symbol id="lock">
  <path d="M15 131.862c-6.533 0-11.848 5.315-11.848 11.848S8.467 155.558 15 155.558s11.848-5.315 11.848-11.848c0-6.534-5.315-11.848-11.848-11.848zm0 22.244c-5.733 0-10.396-4.664-10.396-10.397 0-5.733 4.663-10.396 10.396-10.396 5.733 0 10.396 4.664 10.396 10.397 0 5.733-4.663 10.396-10.396 10.396zm-1.14-3.567h2.28v-2.196h-2.28v2.196zm0-4.606h2.28v-9.052h-2.28v9.052z" />
</symbol> 
<symbol id="unlock">
  <path d="M21.514 164.751H20.28v-.953c0-2.912-2.37-5.28-5.281-5.28a5.286 5.286 0 00-5.28 5.28v.953H8.487a.726.726 0 00-.726.726v13.022c0 .4.324.725.726.725h13.027a.725.725 0 00.726-.725v-13.022a.726.726 0 00-.726-.726zm-10.342-.953A3.832 3.832 0 0115 159.97a3.833 3.833 0 013.829 3.828v.953h-7.657v-.953zm9.616 13.975H9.212v-11.571h11.576v11.571zm-6.514-6.237v2.55a.726.726 0 101.452 0v-2.55a1.297 1.297 0 10-1.452 0z" />
</symbol>
<symbol id="mates">
  <path d="M24.901 188.46H14.559v-.953a5.287 5.287 0 00-5.28-5.28 5.286 5.286 0 00-5.28 5.28v1.679a.726.726 0 001.45 0v-1.679a3.833 3.833 0 013.83-3.828 3.833 3.833 0 013.828 3.828v.953h-1.233a.726.726 0 00-.726.726v13.022c0 .401.325.726.726.726H24.9c.4 0 .726-.325.726-.726v-13.022c0-.4-.325-.726-.726-.726zm-.726 13.022H12.6v-11.57h11.575v11.57zm-6.514-6.237v2.551a.726.726 0 001.452 0v-2.55a1.297 1.297 0 10-1.452-.001z" />
</symbol>
<symbol id="profile">
  <path d="M6.541 223.544c-.544.638-.719 1.361-.49 2.037.258.763.994 1.327 2.017 1.546 2.49.533 5.571.639 9.736.639 4.165 0 7.247-.107 9.736-.639 1.023-.219 1.759-.783 2.017-1.546.229-.676.055-1.399-.49-2.036-1.046-1.222-4.046-2.227-7.131-3.131-.203-.059-.41-.119-.556-.165.052-.173.199-.5.592-1.098l.096-.148c.435-.662.653-.994.836-1.912.035-.177.23-.593.417-.784.484-.498.988-2.226.667-3.187-.01-.032-.039-.1-.083-.191-.052-.104-.21-.42-.199-.583.077-1.121-.034-2.163-.33-3.097-.424-1.342-1.648-2.557-3.118-3.094-.94-.344-1.76-.373-2.453-.373-.694 0-1.513.029-2.454.373-1.47.537-2.694 1.753-3.119 3.095-.295.932-.406 1.974-.33 3.096.011.163-.146.479-.197.583a1.83 1.83 0 00-.085.192c-.32.96.184 2.688.668 3.185.188.191.382.608.416.784.184.919.402 1.251.837 1.914l.097.147c.392.598.539.924.59 1.098-.146.045-.352.106-.555.164-3.086.906-6.086 1.91-7.132 3.131zm1.103.944c.91-1.062 4.925-2.238 6.437-2.68.55-.162.78-.23.911-.287.326-.14.56-.401.66-.734.22-.732-.255-1.601-.801-2.432l-.096-.147c-.394-.598-.499-.76-.627-1.401-.085-.427-.407-1.11-.8-1.514-.163-.225-.453-1.263-.338-1.687l.014-.03c.125-.252.385-.774.347-1.33-.065-.938.025-1.799.265-2.558.29-.916 1.187-1.788 2.234-2.171.717-.263 1.36-.284 1.955-.284s1.237.021 1.955.284c1.046.383 1.944 1.255 2.233 2.171.24.759.33 1.62.266 2.559-.04.555.22 1.078.346 1.329l.014.03c.115.425-.175 1.463-.357 1.709-.373.381-.696 1.064-.781 1.492-.128.641-.233.802-.626 1.401l-.097.146c-.546.831-1.021 1.701-.802 2.433.099.333.333.594.66.735.131.057.36.125.911.286 1.512.443 5.528 1.618 6.436 2.681.141.164.293.407.219.627-.069.203-.353.465-.945.592-2.365.506-5.363.608-9.433.608-4.07 0-7.067-.102-9.433-.608-.592-.127-.876-.389-.945-.592-.075-.221.077-.463.218-.628zm-7.217-.64c.216.638.82 1.106 1.658 1.286.57.122 1.21.218 1.954.293a.726.726 0 10.146-1.444 16.319 16.319 0 01-1.797-.27c-.404-.086-.56-.254-.586-.331-.027-.079.05-.209.132-.303.654-.765 3.762-1.675 4.784-1.974.446-.131.606-.178.715-.225.294-.128.507-.365.597-.666.187-.622-.19-1.322-.624-1.986l-.075-.114c-.297-.452-.36-.547-.45-.999a2.82 2.82 0 00-.628-1.209c-.126-.206-.295-.872-.24-1.119.12-.242.313-.652.282-1.101-.047-.689.018-1.318.193-1.872.204-.644.84-1.26 1.583-1.53.516-.19.984-.205 1.42-.205.21 0 .46.004.711.035a.725.725 0 10.178-1.441 7.31 7.31 0 00-.89-.046c-.54 0-1.179.022-1.917.292-1.18.432-2.127 1.373-2.47 2.456-.23.728-.316 1.538-.256 2.409 0 .038-.023.132-.131.351a1.44 1.44 0 00-.075.172c-.268.801.152 2.181.549 2.587.108.111.246.395.268.503.146.731.328 1.009.66 1.514l.048.073c.205.313.32.521.383.657-.07.021-.15.045-.239.07-2.36.692-4.658 1.463-5.478 2.423-.448.525-.596 1.15-.405 1.714z" />

  <path d="M25.779 248.221c-1.046-1.221-4.046-2.226-7.131-3.13-.203-.059-.41-.119-.556-.164.052-.174.198-.501.59-1.098l.098-.148c.434-.662.653-.995.836-1.913.035-.177.23-.593.416-.784.485-.498.988-2.225.669-3.185a1.67 1.67 0 00-.085-.192c-.052-.104-.21-.421-.198-.584.077-1.121-.034-2.164-.33-3.096-.424-1.342-1.648-2.558-3.118-3.095-.94-.344-1.76-.373-2.454-.373-.694 0-1.513.029-2.454.373-1.47.537-2.693 1.752-3.119 3.095-.295.933-.406 1.975-.33 3.096.012.163-.145.479-.197.583a1.704 1.704 0 00-.084.192c-.32.961.183 2.688.668 3.186.186.191.38.607.416.784.183.918.401 1.251.836 1.913l.097.148c.392.597.54.924.591 1.098-.147.045-.353.105-.556.164-3.086.904-6.085 1.909-7.13 3.131-.546.637-.72 1.361-.491 2.036.258.764.993 1.327 2.017 1.546 2.49.533 5.571.64 9.736.64 4.165 0 7.247-.108 9.736-.64 1.024-.219 1.759-.782 2.017-1.546.23-.675.055-1.399-.49-2.037zm-.885 1.572c-.069.203-.353.465-.945.592-2.366.506-5.363.608-9.433.608-4.07 0-7.068-.102-9.432-.608-.593-.127-.878-.389-.946-.592-.074-.221.077-.463.218-.628.909-1.062 4.925-2.237 6.436-2.68.551-.162.78-.23.912-.287.326-.14.56-.401.66-.734.22-.732-.255-1.601-.8-2.432l-.097-.147c-.393-.598-.499-.759-.626-1.4-.085-.428-.408-1.112-.782-1.493-.181-.246-.472-1.284-.357-1.709l.015-.03c.124-.251.384-.774.346-1.329-.065-.939.025-1.8.265-2.559.29-.916 1.187-1.788 2.233-2.17.717-.263 1.36-.285 1.955-.285.596 0 1.238.022 1.955.285 1.047.382 1.944 1.254 2.233 2.17.241.759.33 1.62.266 2.559-.038.555.221 1.078.346 1.329l.015.03c.114.424-.175 1.462-.338 1.687-.393.403-.716 1.087-.8 1.514-.129.641-.234.802-.627 1.401l-.096.147c-.546.831-1.02 1.7-.802 2.432.1.333.334.594.66.734.132.057.36.125.912.286 1.512.443 5.527 1.619 6.436 2.68.14.166.293.408.218.629z" />
</symbol>

<symbol id="tick">
  <path d="M15 255.249c-6.533 0-11.848 5.315-11.848 11.848S8.467 278.945 15 278.945s11.848-5.315 11.848-11.848S21.533 255.249 15 255.249zm0 22.244c-5.733 0-10.396-4.665-10.396-10.397 0-5.733 4.664-10.396 10.396-10.396 5.733 0 10.396 4.664 10.396 10.397 0 5.733-4.663 10.396-10.396 10.396zm4.075-13.395l-4.459 4.458-2.631-2.632a.726.726 0 00-1.027 1.027l3.145 3.144a.723.723 0 001.027 0l4.972-4.971a.725.725 0 10-1.027-1.026z" />
</symbol>

  <use xlink:href="#settings" x="0" y="0" fill="#032A49" />
  <use xlink:href="#settings" x="35" y="0" fill="#ffffff" />
  <use xlink:href="#search" x="0" y="0" fill="#032A49" />
  <use xlink:href="#search" x="35" y="0" fill="#ffffff" />
  <use xlink:href="#message" x="0" y="0" fill="#032A49" />
  <use xlink:href="#message" x="35" y="0" fill="#ffffff" />
  <use xlink:href="#thread" x="0" y="0" fill="#032A49" />
  <use xlink:href="#thread" x="35" y="0" fill="#ffffff" />
  <use xlink:href="#home" x="0" y="0" fill="#032A49" />
  <use xlink:href="#home" x="35" y="0" fill="#ffffff" />
  <use xlink:href="#error" x="0" y="0" fill="#032A49" />
  <use xlink:href="#error" x="35" y="0" fill="#ffffff" />
  <use xlink:href="#lock" x="0" y="0" fill="#032A49" />
  <use xlink:href="#lock" x="35" y="0" fill="#ffffff" />
  <use xlink:href="#unlock" x="0" y="0" fill="#032A49" />
  <use xlink:href="#unlock" x="35" y="0" fill="#ffffff" />
  <use xlink:href="#mates" x="0" y="0" fill="#032A49" />
  <use xlink:href="#mates" x="35" y="0" fill="#ffffff" />
  <use xlink:href="#profile" x="0" y="0" fill="#032A49" />
  <use xlink:href="#profile" x="35" y="0" fill="#ffffff" />
  <use xlink:href="#tick" x="0" y="0" fill="#032A49" />
  <use xlink:href="#tick" x="35" y="0" fill="#ffffff" />
</svg>