<svg width="30" height="300" viewBox="0 0 30 300" fill="none" xmlns="http://www.w3.org/2000/svg" xmlns:xlink="http://www.w3.org/1999/xlink">
<symbol id="settings">
  <path d="M20.7143 12.8571V3.57143" stroke-linecap="round" stroke-linejoin="round"/>
  <path d="M20.7143 26.4286V20" stroke-linecap="round" stroke-linejoin="round"/>
  <path d="M20.7143 20C22.6867 20 24.2857 18.401 24.2857 16.4286C24.2857 14.4561 22.6867 12.8571 20.7143 12.8571C18.7418 12.8571 17.1429 14.4561 17.1429 16.4286C17.1429 18.401 18.7418 20 20.7143 20Z" stroke-linecap="round" stroke-linejoin="round"/>
  <path d="M9.28574 7.14286V3.57143" stroke-linecap="round" stroke-linejoin="round"/>
  <path d="M9.28574 26.4286V14.2857" stroke-linecap="round" stroke-linejoin="round"/>
  <path d="M9.28572 14.2857C11.2582 14.2857 12.8572 12.6867 12.8572 10.7143C12.8572 8.74184 11.2582 7.14285 9.28572 7.14285C7.31328 7.14285 5.71429 8.74184 5.71429 10.7143C5.71429 12.6867 7.31328 14.2857 9.28572 14.2857Z" stroke-linecap="round" stroke-linejoin="round"/>
</symbol>
<symbol id="search">
  <path d="M12.1429 49.2857C16.0877 49.2857 19.2857 46.0877 19.2857 42.1429C19.2857 38.198 16.0877 35 12.1429 35C8.19797 35 5 38.198 5 42.1429C5 46.0877 8.19797 49.2857 12.1429 49.2857Z" stroke-linecap="round" stroke-linejoin="round"/>
  <path d="M25.1014 55L17.1429 47.1429" stroke-linecap="round" stroke-linejoin="round"/>
</symbol>
<symbol id="message">
  <path d="M14.2857 85.0246C20.5975 85.0246 25.7143 80.7019 25.7143 75.3695C25.7143 70.0371 20.5975 65.7143 14.2857 65.7143C7.97389 65.7143 2.85715 70.0371 2.85715 75.3695C2.85715 77.4515 3.63719 79.3796 4.96386 80.9566L3.57143 87.5L9.16582 84.0039C10.706 84.657 12.445 85.0246 14.2857 85.0246Z" stroke-linecap="round" stroke-linejoin="round"/>
</symbol>
<symbol id="thread">
  <path fill-rule="evenodd" clip-rule="evenodd" d="M13.5714 97.8571C11.2045 97.8571 9.28572 99.7759 9.28572 102.143V109.286C9.28572 111.653 11.2045 113.571 13.5714 113.571L17.0971 113.57L19.5476 117.041C19.7818 117.373 20.1442 117.587 20.5419 117.635L20.7143 117.645C21.5033 117.645 22.1429 117.006 22.1429 116.217L22.1443 113.57L23.5714 113.571C25.9384 113.571 27.8571 111.653 27.8571 109.286V102.143C27.8571 99.7759 25.9384 97.8571 23.5714 97.8571H13.5714Z" stroke-linecap="round" stroke-linejoin="round"/>
  <path d="M9.28572 109.286L6.42858 112.143V106.429H5.13392C3.56901 106.429 2.29529 105.17 2.27698 103.605L2.17668 95.0334C2.15822 93.4556 3.42235 92.1615 5.0002 92.1431C5.01134 92.1429 5.02249 92.1429 5.03363 92.1429H17.8571C19.4351 92.1429 20.7143 93.422 20.7143 95V97.8571" stroke-linecap="round" stroke-linejoin="round"/>
</symbol>
<symbol id="mates">
  <path fill-rule="evenodd" clip-rule="evenodd" d="M12.1429 123.571C14.5098 123.571 16.4286 125.49 16.4286 127.857V129.286C16.4286 131.653 14.5098 133.571 12.1429 133.571C9.77592 133.571 7.85714 131.653 7.85714 129.286V127.857C7.85714 125.49 9.77592 123.571 12.1429 123.571ZM22.1429 143.571C22.1429 143.225 22.1429 142.878 22.1429 142.531C22.1429 137.979 16.8767 135 12.1429 135C7.40898 135 2.14285 137.979 2.14285 142.531V143.571C2.14285 144.36 2.78245 145 3.57142 145H20.7143C21.5033 145 22.1429 144.36 22.1429 143.571Z" fill="none" stroke-linecap="round" stroke-linejoin="round"/>
  <path fill-rule="evenodd" clip-rule="evenodd" d="M17.8856 123.825C19.5353 124.422 20.7143 126.002 20.7143 127.857V129.286C20.7143 131.139 19.5383 132.717 17.892 133.315C18.832 132.173 19.3013 130.592 19.3 128.57C19.2986 126.549 18.8271 124.967 17.8856 123.825V123.825ZM25 145H26.4286C27.2176 145 27.8571 144.36 27.8571 143.571C27.8571 143.225 27.8571 142.878 27.8571 142.531C27.8571 139.431 25.4151 137.061 22.362 135.864C22.362 135.864 26.4286 139.286 25 145Z" stroke-linecap="round" stroke-linejoin="round"/>
</symbol>
<symbol id="profile">
  <path d="M15 176.429C21.3118 176.429 26.4286 171.312 26.4286 165C26.4286 158.688 21.3118 153.571 15 153.571C8.68819 153.571 3.57144 158.688 3.57144 165C3.57144 171.312 8.68819 176.429 15 176.429Z" stroke-linecap="round" stroke-linejoin="round"/>
  <path d="M23.5714 172.143C22.6264 168.895 19.0006 167.821 15 167.821C11.1036 167.821 7.4704 169.062 6.42859 172.143M15 156.429C17.367 156.429 19.2857 158.347 19.2857 160.714V162.143C19.2857 164.51 17.367 166.429 15 166.429C12.6331 166.429 10.7143 164.51 10.7143 162.143V160.714C10.7143 158.347 12.6331 156.429 15 156.429Z" stroke-linecap="round" stroke-linejoin="round"/>
</symbol>
<symbol id="error">
  <path d="M15 206.429C21.3118 206.429 26.4286 201.312 26.4286 195C26.4286 188.688 21.3118 183.571 15 183.571C8.68819 183.571 3.57144 188.688 3.57144 195C3.57144 201.312 8.68819 206.429 15 206.429Z" fill="none" stroke-linecap="round" stroke-linejoin="round"/>
  <path d="M15 196.429V189.286" stroke-linecap="round" stroke-linejoin="round"/>
  <path d="M15 202.143C15.789 202.143 16.4286 201.503 16.4286 200.714C16.4286 199.925 15.789 199.286 15 199.286C14.211 199.286 13.5714 199.925 13.5714 200.714C13.5714 201.503 14.211 202.143 15 202.143Z" />
</symbol>
<symbol id="locked">
  <path fill-rule="evenodd" clip-rule="evenodd" d="M9.2857 223.571L9.27732 220.722C9.26691 215.002 11.1745 212.143 15 212.143C18.8255 212.143 20.7303 215.002 20.7144 220.722V223.571H9.2857ZM9.2857 223.571H20.7465C22.3244 223.571 23.6036 224.851 23.6036 226.429C23.6036 226.431 23.6036 226.434 23.6036 226.437L23.5794 235.008C23.575 236.583 22.2971 237.857 20.7223 237.857H9.2857C7.70774 237.857 6.42856 236.578 6.42856 235V226.429C6.42856 224.851 7.70774 223.571 9.2857 223.571V223.571Z" fill="none" stroke-linecap="round" stroke-linejoin="round"/>
  <path d="M15 232.857C16.1834 232.857 17.1428 231.898 17.1428 230.714C17.1428 229.531 16.1834 228.571 15 228.571C13.8165 228.571 12.8571 229.531 12.8571 230.714C12.8571 231.898 13.8165 232.857 15 232.857Z" />
</symbol>
<symbol id="unlocked">
  <path d="M9.2857 253.571L9.27732 250.722C9.26691 245.003 11.1745 242.143 15 242.143C18.1305 242.143 20.1562 244.027 20.7143 247.857M9.2857 253.571H20.7465C22.3244 253.571 23.6036 254.851 23.6036 256.429L23.6036 256.437L23.5794 265.008C23.575 266.583 22.2971 267.857 20.7223 267.857H9.2857C7.70774 267.857 6.42856 266.578 6.42856 265V256.429C6.42856 254.851 7.70774 253.571 9.2857 253.571Z" fill="none" stroke-linecap="round" stroke-linejoin="round"/>
  <path d="M15 262.857C16.1834 262.857 17.1428 261.898 17.1428 260.714C17.1428 259.531 16.1834 258.571 15 258.571C13.8165 258.571 12.8571 259.531 12.8571 260.714C12.8571 261.898 13.8165 262.857 15 262.857Z"/>
</symbol>
<symbol id="tick">
  <path d="M7.85715 286.429L12.1429 290.714L23.6114 279.286" stroke-linecap="round" stroke-linejoin="round"/> -->
</symbol>

<use xlink:href="#settings" x="0" y="0" stroke="#032A49" />
<use xlink:href="#search" x="0" y="0" stroke="#032A49" />
<use xlink:href="#message" x="0" y="0" stroke="#032A49" />
<use xlink:href="#thread" x="0" y="0" stroke="#032A49" />
<use xlink:href="#mates" x="0" y="0" stroke="#032A49" fill="#032A49" />
<use xlink:href="#profile" x="0" y="0" stroke="#032A49" />
<use xlink:href="#error" x="0" y="0" stroke="#794444" fill="#794444" />
<use xlink:href="#locked" x="0" y="0" stroke="#032A49" fill="#032A49" />
<use xlink:href="#unlocked" x="0" y="0" stroke="#032A49" fill="#032A49" />
<use xlink:href="#tick" x="0" y="0" stroke="#446945" />
</svg>
